<svg xmlns="http://www.w3.org/2000/svg" viewBox="0 0 304.03 862.65"><defs><style>.cls-1{fill:#4884ee;}.cls-2{fill:#06bcfb;}</style></defs><g id="Layer_2" data-name="Layer 2"><g id="Layer_1-2" data-name="Layer 1"><path class="cls-1" d="M74.75,765.34c-7.15-3.26-15-3-22.49-4.28-9.74-1.61-19.57-2.63-28-8.43C7.73,741.3,0,725.57,0,705.63Q.12,588,0,470.28V313.73c0-10.87,2-21,9.55-29.44,7.81-8.75,17.77-13.21,29.27-11.63,32.32,4.46,64.54,9.59,96.8,14.45,17.54,2.64,35.14,4.91,52.6,8,22.45,4,39.35,23.32,41.32,46.22a150.41,150.41,0,0,1,.18,25.29,4.22,4.22,0,0,0,.91,3.52q0,157.51-.07,315c0,20.32.19,40.64-.08,61-.22,16.66-11.11,32.79-29.46,36-7.87,1.39-15.29-.4-22.86-1.51-18.91-2.77-37.81-5.67-56.72-8.47C105.92,769.84,90.35,767.61,74.75,765.34Z"/><path class="cls-2" d="M74.75,765.34c15.56,2.27,31.13,4.5,46.68,6.81,18.91,2.8,37.81,5.7,56.72,8.47,7.57,1.11,15,2.9,22.86,1.51,18.35-3.23,29.24-19.36,29.46-36,.27-20.32.07-40.64.08-61q0-157.53.07-315c13.95,2.08,28.45,2.06,41.57,7.63,19.56,8.3,29.58,24.06,31.74,45a41.52,41.52,0,0,1,.07,4.32V822.63c0,14.59-4.73,26.77-17.44,34.87-7.74,4.93-16.23,6-25.29,4.56-22.62-3.58-45.28-6.87-67.92-10.31-22.12-3.37-44.22-6.81-66.34-10.14-8.14-1.22-16.41-1.88-23.85-5.89-18.56-10-27.55-26-28.71-46.66C74.05,781.17,74.66,773.24,74.75,765.34Z"/><path class="cls-1" d="M5.11,110.42C5.06,50.24,55.2-.4,115.19,0,175.6.39,225.67,48.13,225.57,110.69c-.09,61.33-49,109.57-110.34,110.15C55.15,221.4,5.15,170.77,5.11,110.42Z"/></g></g></svg>